<svg width="25" height="46" viewBox="0 0 25 46" fill="none" xmlns="http://www.w3.org/2000/svg">
<path d="M25 13.4167C24.9999 10.4632 24.0462 7.59223 22.2869 5.24909C20.5275 2.90595 18.0607 1.22156 15.2691 0.457158C12.4776 -0.307247 9.51719 -0.10895 6.84713 1.02129C4.17707 2.15154 1.94655 4.15057 0.501492 6.70836C0.00468971 7.58896 -0.129588 8.63515 0.128179 9.61691C0.385947 10.5987 1.01466 11.4356 1.8761 11.9438C2.73753 12.452 3.76117 12.5897 4.72196 12.3268C5.68276 12.0639 6.50206 11.4218 6.99975 10.5417C7.49428 9.66839 8.20459 8.94316 9.0596 8.4386C9.91461 7.93405 10.8843 7.66786 11.8716 7.66669C13.3638 7.66669 14.795 8.27249 15.8501 9.35082C16.9053 10.4292 17.4981 11.8917 17.4981 13.4167C17.4981 14.9417 16.9053 16.4042 15.8501 17.4825C14.795 18.5609 13.3638 19.1667 11.8716 19.1667H11.8625C11.6215 19.1913 11.3836 19.2411 11.1525 19.315C10.8998 19.3419 10.6503 19.3941 10.4075 19.4709C10.201 19.5855 10.0057 19.7201 9.82419 19.8728C9.60877 19.9926 9.40525 20.1334 9.21653 20.2935C9.04786 20.4992 8.9007 20.7224 8.77744 20.9593C8.64077 21.1322 8.51941 21.3172 8.4148 21.512C8.33328 21.7762 8.2794 22.0485 8.25407 22.3243C8.18875 22.5447 8.14408 22.771 8.12065 23V26.8333L8.12935 26.8769L8.13348 28.7594C8.13606 29.7744 8.53237 30.7469 9.23551 31.4637C9.93866 32.1805 10.8913 32.5832 11.8844 32.5833H11.8936C12.8884 32.5808 13.8415 32.1745 14.5432 31.4539C15.2449 30.7333 15.6378 29.7573 15.6354 28.7407L15.6297 26.2054C18.3287 25.3854 20.6975 23.6988 22.3853 21.3954C24.073 19.092 24.9898 16.2943 25 13.4167ZM9.23603 39.445C8.70938 39.9788 8.34942 40.6602 8.20165 41.4031C8.05388 42.1459 8.12495 42.9168 8.40586 43.6184C8.68676 44.32 9.16491 44.9207 9.77984 45.3446C10.3948 45.7685 11.1189 45.9966 11.8606 46C12.8554 45.9917 13.8092 45.5938 14.5255 44.8883C15.2217 44.1611 15.6116 43.1842 15.6116 42.1668C15.6116 41.1494 15.2217 40.1725 14.5255 39.4453C13.8074 38.7614 12.8624 38.3811 11.8808 38.3811C10.8993 38.381 9.95418 38.7612 9.23603 39.445Z" fill="#1A0124"/>
</svg>
